<mxfile host="app.diagrams.net" modified="2020-12-17T10:38:16.133Z" agent="5.0 (Windows NT 10.0; Win64; x64) AppleWebKit/537.36 (KHTML, like Gecko) Chrome/87.0.4280.88 Safari/537.36" etag="UH1JjlF0_mfDbNJv1pH_" version="14.0.3" type="github">
  <diagram id="qldF4LkKA-URwhlDB35i" name="Page-1">
    <mxGraphModel dx="2287" dy="1793" grid="1" gridSize="10" guides="1" tooltips="1" connect="1" arrows="1" fold="1" page="1" pageScale="1" pageWidth="827" pageHeight="1169" math="0" shadow="0">
      <root>
        <mxCell id="0" />
        <mxCell id="1" parent="0" />
        <mxCell id="1Fhl22Ps6XHAA8jBFgip-1" value="&lt;font style=&quot;font-size: 18px&quot;&gt;ChubaoFS use scenarios&lt;/font&gt;" style="ellipse;whiteSpace=wrap;html=1;aspect=fixed;" vertex="1" parent="1">
          <mxGeometry x="360" y="200" width="120" height="120" as="geometry" />
        </mxCell>
        <mxCell id="1Fhl22Ps6XHAA8jBFgip-2" value="" style="ellipse;whiteSpace=wrap;html=1;aspect=fixed;fillColor=#808080;" vertex="1" parent="1">
          <mxGeometry x="320" y="60" width="80" height="80" as="geometry" />
        </mxCell>
        <mxCell id="1Fhl22Ps6XHAA8jBFgip-3" value="" style="ellipse;whiteSpace=wrap;html=1;aspect=fixed;strokeColor=#000000;fillColor=#808080;" vertex="1" parent="1">
          <mxGeometry x="560" y="130" width="80" height="80" as="geometry" />
        </mxCell>
        <mxCell id="1Fhl22Ps6XHAA8jBFgip-4" value="" style="ellipse;whiteSpace=wrap;html=1;aspect=fixed;fillColor=#808080;" vertex="1" parent="1">
          <mxGeometry x="440" y="360" width="80" height="80" as="geometry" />
        </mxCell>
        <mxCell id="1Fhl22Ps6XHAA8jBFgip-5" value="" style="ellipse;whiteSpace=wrap;html=1;aspect=fixed;fillColor=#808080;strokeColor=#666666;" vertex="1" parent="1">
          <mxGeometry x="160" y="200" width="80" height="80" as="geometry" />
        </mxCell>
        <mxCell id="1Fhl22Ps6XHAA8jBFgip-6" value="&lt;font style=&quot;font-size: 18px&quot;&gt;Clickhouse&lt;/font&gt;" style="text;html=1;strokeColor=none;fillColor=none;align=center;verticalAlign=middle;whiteSpace=wrap;rounded=0;" vertex="1" parent="1">
          <mxGeometry x="360" y="410" width="40" height="20" as="geometry" />
        </mxCell>
        <mxCell id="1Fhl22Ps6XHAA8jBFgip-7" value="&lt;font style=&quot;font-size: 18px&quot;&gt;AI Platform&lt;/font&gt;" style="text;html=1;strokeColor=none;fillColor=none;align=center;verticalAlign=middle;whiteSpace=wrap;rounded=0;" vertex="1" parent="1">
          <mxGeometry x="130" y="290" width="140" height="20" as="geometry" />
        </mxCell>
        <mxCell id="1Fhl22Ps6XHAA8jBFgip-8" value="" style="ellipse;whiteSpace=wrap;html=1;aspect=fixed;fillColor=#FFFFFF;" vertex="1" parent="1">
          <mxGeometry x="420" y="-70" width="80" height="80" as="geometry" />
        </mxCell>
        <mxCell id="1Fhl22Ps6XHAA8jBFgip-9" value="" style="ellipse;whiteSpace=wrap;html=1;aspect=fixed;fillColor=#FFFFFF;" vertex="1" parent="1">
          <mxGeometry x="160" width="80" height="80" as="geometry" />
        </mxCell>
        <mxCell id="1Fhl22Ps6XHAA8jBFgip-10" value="" style="ellipse;whiteSpace=wrap;html=1;aspect=fixed;fillColor=#FFFFFF;" vertex="1" parent="1">
          <mxGeometry x="-30" y="160" width="80" height="80" as="geometry" />
        </mxCell>
        <mxCell id="1Fhl22Ps6XHAA8jBFgip-11" value="" style="ellipse;whiteSpace=wrap;html=1;aspect=fixed;fillColor=#FFFFFF;" vertex="1" parent="1">
          <mxGeometry x="720" y="80" width="80" height="80" as="geometry" />
        </mxCell>
        <mxCell id="1Fhl22Ps6XHAA8jBFgip-12" value="" style="ellipse;whiteSpace=wrap;html=1;aspect=fixed;fillColor=#FFFFFF;" vertex="1" parent="1">
          <mxGeometry x="650" y="330" width="80" height="80" as="geometry" />
        </mxCell>
        <mxCell id="1Fhl22Ps6XHAA8jBFgip-13" value="" style="ellipse;whiteSpace=wrap;html=1;aspect=fixed;fillColor=#FFFFFF;" vertex="1" parent="1">
          <mxGeometry x="530" y="505" width="80" height="80" as="geometry" />
        </mxCell>
        <mxCell id="1Fhl22Ps6XHAA8jBFgip-14" value="" style="ellipse;whiteSpace=wrap;html=1;aspect=fixed;fillColor=#FFFFFF;" vertex="1" parent="1">
          <mxGeometry x="170" y="440" width="80" height="80" as="geometry" />
        </mxCell>
        <mxCell id="1Fhl22Ps6XHAA8jBFgip-15" value="&lt;font style=&quot;font-size: 18px&quot;&gt;Advertisement &amp;amp; Recommendation&lt;/font&gt;" style="text;html=1;strokeColor=none;fillColor=none;align=center;verticalAlign=middle;whiteSpace=wrap;rounded=0;" vertex="1" parent="1">
          <mxGeometry x="260" y="160" width="140" height="20" as="geometry" />
        </mxCell>
        <mxCell id="1Fhl22Ps6XHAA8jBFgip-16" value="&lt;font style=&quot;font-size: 18px&quot;&gt;Elasticsearch&lt;/font&gt;" style="text;html=1;strokeColor=none;fillColor=none;align=center;verticalAlign=middle;whiteSpace=wrap;rounded=0;" vertex="1" parent="1">
          <mxGeometry x="540" y="230" width="140" height="20" as="geometry" />
        </mxCell>
        <mxCell id="1Fhl22Ps6XHAA8jBFgip-17" value="&lt;font style=&quot;font-size: 18px&quot;&gt;Harbor HA&lt;/font&gt;" style="text;html=1;strokeColor=none;fillColor=none;align=center;verticalAlign=middle;whiteSpace=wrap;rounded=0;" vertex="1" parent="1">
          <mxGeometry x="60" y="-40" width="140" height="20" as="geometry" />
        </mxCell>
      </root>
    </mxGraphModel>
  </diagram>
</mxfile>
